<?xml version="1.0" encoding="UTF-8" standalone="no"?>
<svg
   xmlns:dc="http://purl.org/dc/elements/1.1/"
   xmlns:cc="http://creativecommons.org/ns#"
   xmlns:rdf="http://www.w3.org/1999/02/22-rdf-syntax-ns#"
   xmlns:svg="http://www.w3.org/2000/svg"
   xmlns="http://www.w3.org/2000/svg"
   xmlns:sodipodi="http://sodipodi.sourceforge.net/DTD/sodipodi-0.dtd"
   xmlns:inkscape="http://www.inkscape.org/namespaces/inkscape"
   viewBox="0 0 512 512"
   id="svg2"
   version="1.1"
   inkscape:version="0.91 r13725"
   sodipodi:docname="chart-bar.svg">
  <metadata
     id="metadata10">
    <rdf:RDF>
      <cc:Work
         rdf:about="">
        <dc:format>image/svg+xml</dc:format>
        <dc:type
           rdf:resource="http://purl.org/dc/dcmitype/StillImage" />
      </cc:Work>
    </rdf:RDF>
  </metadata>
  <defs
     id="defs8" />
  <sodipodi:namedview
     pagecolor="#ffffff"
     bordercolor="#666666"
     borderopacity="1"
     objecttolerance="10"
     gridtolerance="10"
     guidetolerance="10"
     inkscape:pageopacity="0"
     inkscape:pageshadow="2"
     inkscape:window-width="3840"
     inkscape:window-height="2160"
     id="namedview6"
     showgrid="false"
     inkscape:zoom="2.6074563"
     inkscape:cx="37.444274"
     inkscape:cy="327.73911"
     inkscape:window-x="0"
     inkscape:window-y="0"
     inkscape:window-maximized="0"
     inkscape:current-layer="svg2" />
  <rect
     style="fill:#99cc33;fill-opacity:1;stroke:#ffffff;stroke-width:3.36123395;stroke-opacity:1"
     id="rect4146"
     width="514.60187"
     height="514.60187"
     x="-1.2407883"
     y="0.16167209" />
  <path
     d="m 444.37288,380.38418 c 4.97796,0 9.05085,5.15593 9.05085,11.45763 l 0,38.19209 c 0,6.30169 -4.07289,11.45762 -9.05085,11.45762 l -368.067795,0 c -4.977966,0 -9.050848,-5.15593 -9.050848,-11.45762 l 0,-343.728815 c 0,-6.301695 4.072882,-11.457627 9.050848,-11.457627 l 30.169485,0 c 4.97797,0 9.05085,5.155932 9.05085,11.457627 l 0,294.079095 328.84746,0 z m -232.30509,-42.0113 0,-68.74576 c 0,-6.3017 -4.07288,-11.45763 -9.05084,-11.45763 l -30.1695,0 c -4.97796,0 -9.05084,5.15593 -9.05084,11.45763 l 0,68.74576 c 0,6.30169 4.07288,11.45763 9.05084,11.45763 l 30.1695,0 c 4.97796,0 9.05084,-5.15594 9.05084,-11.45763 z m 144.81356,0 0,-129.85311 c 0,-6.30169 -4.07288,-11.45762 -9.05084,-11.45762 l -30.1695,0 c -4.97796,0 -9.05084,5.15593 -9.05084,11.45762 l 0,129.85311 c 0,6.30169 4.07288,11.45763 9.05084,11.45763 l 30.1695,0 c 4.97796,0 9.05084,-5.15594 9.05084,-11.45763 z m -72.40678,0 0,-190.96045 c 0,-6.3017 -4.07288,-11.45763 -9.05084,-11.45763 l -30.1695,0 c -4.97796,0 -9.05084,5.15593 -9.05084,11.45763 l 0,190.96045 c 0,6.30169 4.07288,11.45763 9.05084,11.45763 l 30.1695,0 c 4.97796,0 9.05084,-5.15594 9.05084,-11.45763 z m 144.81356,0 0,-221.51412 c 0,-6.3017 -4.07288,-11.45763 -9.05084,-11.45763 l -30.1695,0 c -4.97796,0 -9.05084,5.15593 -9.05084,11.45763 l 0,221.51412 c 0,6.30169 4.07288,11.45763 9.05084,11.45763 l 30.1695,0 c 4.97796,0 9.05084,-5.15594 9.05084,-11.45763 z"
     id="path4"
     inkscape:connector-curvature="0"
     style="fill:#333333" />
</svg>
